<?xml version="1.0" encoding="UTF-8"?><!DOCTYPE svg PUBLIC "-//W3C//DTD SVG 1.1//EN" "http://www.w3.org/Graphics/SVG/1.1/DTD/svg11.dtd"><svg xmlns="http://www.w3.org/2000/svg"><defs><style>.cls-1{fill:#fff}</style><style>.cls-1{fill:none}.cls-2{clip-path:url(#clip-path)}.cls-3{fill:#231f20}</style><clipPath id="clip-path"><path class="cls-1" d="M0 0h188.11v257.35H0z"/></clipPath><style>.cls-1{fill:none}.cls-2{clip-path:url(#clip-path)}.cls-3{fill:#231f20}.cls-4{fill:#010101}</style><clipPath id="clip-path"><path class="cls-1" d="M0 0h188.11v257.35H0z"/></clipPath><style>.cls-1{fill:#fff}</style></defs><symbol id="menu" viewBox="0 0 50 50"><g data-name="&#x421;&#x43B;&#x43E;&#x439; 2"><g data-name="&#x421;&#x43B;&#x43E;&#x439; 1"><path d="M46.62 0H3.3A3.27 3.27 0 0 0 0 3.3a3.27 3.27 0 0 0 3.3 3.3h43.4A3.27 3.27 0 0 0 50 3.3 3.39 3.39 0 0 0 46.62 0zM46.62 43.4H3.3a3.3 3.3 0 0 0 0 6.6h43.4a3.27 3.27 0 0 0 3.3-3.3 3.39 3.39 0 0 0-3.38-3.3zM46.62 21.66H3.3a3.3 3.3 0 0 0 0 6.6h43.4A3.27 3.27 0 0 0 50 25a3.39 3.39 0 0 0-3.38-3.34z"/></g></g></symbol><symbol id="mouse" viewBox="0 0 405 666.4"><g id="&#x421;&#x43B;&#x43E;&#x439;_2" data-name="&#x421;&#x43B;&#x43E;&#x439; 2"><g id="Design"><path class="cls-1" d="M202.5 666.4C90.8 666.4 0 575.6 0 463.9V202.5C0 90.8 90.8 0 202.5 0S405 90.8 405 202.5v261.4c0 111.6-90.8 202.5-202.5 202.5zm0-655.4C96.9 11 11 96.9 11 202.5v261.4c0 105.6 85.9 191.5 191.5 191.5S394 569.5 394 463.9V202.5C394 96.9 308.1 11 202.5 11z"/><path class="cls-1" d="M201.2 228.1a56.8 56.8 0 1 1 56.8-56.8 56.89 56.89 0 0 1-56.8 56.8zm0-102.7a45.8 45.8 0 1 0 45.8 45.8 45.86 45.86 0 0 0-45.8-45.8z"/></g></g></symbol><symbol id="presentation" viewBox="0 0 188.11 257.35"><g id="&#x421;&#x43B;&#x43E;&#x439;_2" data-name="&#x421;&#x43B;&#x43E;&#x439; 2"><g class="cls-2" id="&#x421;&#x43B;&#x43E;&#x439;_1-2" data-name="&#x421;&#x43B;&#x43E;&#x439; 1"><path class="cls-3" d="M188.11 75.49a10.37 10.37 0 0 0-3.18-7.78q-31.36-32.41-62.56-65A8.22 8.22 0 0 0 116 0Q68.73.1 21.5 0C8.29 0 0 8.3 0 21.48v185.66h10V21.29C10 13.84 13.81 10 21.26 10h87.6v61.8c0 5.89 1.55 7.45 7.39 7.45h61.68c.05 1.14.12 2 .12 2.93 0 51.18-.07 102.36.09 153.53 0 7.68-5 11.7-11.76 11.68q-72.37-.26-144.74 0c-7.24 0-11.92-4.68-11.74-11.73.28-10.86.17-21.73.12-32.59H0v33.82c0 6.79 2.5 12.51 8.06 16.44 2.52 1.78 5.65 2.71 8.5 4h154.8a48.29 48.29 0 0 0 5.36-2c8-4 11.38-10.75 11.37-19.6q-.09-80.14 0-160.29M119 69.15V13.69l53.37 55.45z"/><path class="cls-3" d="M37.24 157a86 86 0 0 1 10.41-14.86c8.08-9.16 17.45-16.51 29.22-20.31a54 54 0 0 1 42.35 3.33c10.13 5.11 18.25 12.65 25 21.67 2.27 3 4.19 6.34 6.26 9.53a2.34 2.34 0 0 1 0 2.61c-7.6 13.23-17.61 24.06-31.27 31.2a53 53 0 0 1-20.5 5.89c-15.57 1.24-29.17-3.6-41.18-13.33a82 82 0 0 1-20-23.93c-.09-.16-.2-.31-.29-.47zm56.4 36.4a51.76 51.76 0 0 0 22.81-5.09c13.55-6.59 23.55-17.07 31.07-30.01a1.53 1.53 0 0 0-.06-1.28A77.52 77.52 0 0 0 128 134.26c-9-7.07-19.07-11.41-30.6-12.14a51.14 51.14 0 0 0-28.56 6.4c-12.19 6.74-21.29 16.57-28.2 28.48a1.75 1.75 0 0 0 .06 1.47 75.77 75.77 0 0 0 25.07 26.61 52.44 52.44 0 0 0 27.87 8.34"/><path class="cls-3" d="M94 199.3c-13.84 0-26.73-4.76-38.37-14.19a85.36 85.36 0 0 1-20.73-24.8l-.09-.13-.59-.94v-3l.38-.68a88.29 88.29 0 0 1 10.8-15.35c9.37-10.64 19.36-17.57 30.54-21.18a57 57 0 0 1 44.62 3.5c9.91 5 18.43 12.38 26.05 22.55 1.67 2.22 3.14 4.57 4.56 6.84.6 1 1.2 1.91 1.81 2.85a5.35 5.35 0 0 1 .1 5.74c-8.5 14.8-19.12 25.38-32.48 32.37A56.12 56.12 0 0 1 99 199.1q-2.53.2-5 .2zm-50.3-41.58a72 72 0 0 0 23.66 24.86 49.36 49.36 0 0 0 26.26 7.87 48.77 48.77 0 0 0 21.49-4.78c11.94-5.83 21.53-15 29.27-28a74.71 74.71 0 0 0-18.28-21.08c-9-7.08-18.47-10.84-28.93-11.5a48.36 48.36 0 0 0-26.92 6c-10.81 6.05-19.5 14.75-26.53 26.63z"/><path class="cls-3" d="M94 139.45a18.45 18.45 0 1 1-18.4 18.5 18.43 18.43 0 0 1 18.4-18.5m0 2.92a15.56 15.56 0 1 0 15.56 15.56A15.52 15.52 0 0 0 94 142.37"/><path class="cls-3" d="M94.12 179.35a21.45 21.45 0 0 1-.12-42.9h.13a21.43 21.43 0 0 1 21.37 21.4 21.44 21.44 0 0 1-21.27 21.5zm-.07-34a12.56 12.56 0 0 0 0 25.11 12.56 12.56 0 1 0 0-25.11z"/></g></g></symbol><symbol id="review" viewBox="0 0 188.11 257.35"><g id="&#x421;&#x43B;&#x43E;&#x439;_2" data-name="&#x421;&#x43B;&#x43E;&#x439; 2"><g id="&#x421;&#x43B;&#x43E;&#x439;_1-2" data-name="&#x421;&#x43B;&#x43E;&#x439; 1"><g class="cls-2"><path class="cls-3" d="M188.11 75.49a10.37 10.37 0 0 0-3.18-7.78q-31.36-32.41-62.56-65A8.22 8.22 0 0 0 116 0Q68.73.1 21.5 0C8.29 0 0 8.3 0 21.48v185.66h10V21.29C10 13.84 13.81 10 21.26 10h87.6v61.8c0 5.89 1.55 7.45 7.39 7.45h61.68c.05 1.14.12 2 .12 2.93 0 51.18-.07 102.36.09 153.53 0 7.68-5 11.7-11.76 11.68q-72.37-.26-144.74 0c-7.24 0-11.92-4.68-11.74-11.73.28-10.86.17-21.73.12-32.59H0v33.82c0 6.79 2.5 12.51 8.06 16.44 2.52 1.78 5.65 2.71 8.5 4h154.8a48.29 48.29 0 0 0 5.36-2c8-4 11.38-10.75 11.37-19.6q-.09-80.14 0-160.29M119 69.15V13.69l53.37 55.45z"/></g><path class="cls-4" d="M163.43 201.24a8.65 8.65 0 0 1-2.32-2.6 8.75 8.75 0 0 1 .34-3.64c.47-2.17 1-4.64-.35-6.48s-3.88-2.12-6.1-2.34a8.81 8.81 0 0 1-3.52-.78 8.74 8.74 0 0 1-1.8-3.07c-.91-2.06-1.93-4.4-4.15-5.12a4.17 4.17 0 0 0-1.29-.2c-1.7 0-3.33.95-4.91 1.86a8.78 8.78 0 0 1-3.42 1.47 8.78 8.78 0 0 1-3.42-1.47c-1.58-.92-3.21-1.86-4.91-1.86a4.18 4.18 0 0 0-1.29.2c-2.22.72-3.25 3.06-4.15 5.12a8.76 8.76 0 0 1-1.79 3.07 8.81 8.81 0 0 1-3.52.78c-2.22.23-4.74.48-6.1 2.34s-.81 4.31-.35 6.48a8.7 8.7 0 0 1 .34 3.64 8.65 8.65 0 0 1-2.32 2.6c-1.7 1.51-3.62 3.22-3.62 5.59s1.92 4.08 3.62 5.59a8.64 8.64 0 0 1 2.32 2.6 8.73 8.73 0 0 1-.34 3.64c-.47 2.17-1 4.64.35 6.48s3.88 2.12 6.1 2.35a8.81 8.81 0 0 1 3.52.78 8.75 8.75 0 0 1 1.8 3.07c.9 2.06 1.93 4.4 4.15 5.12a4.17 4.17 0 0 0 1.29.2c1.7 0 3.33-.95 4.91-1.86a8.78 8.78 0 0 1 3.42-1.47 8.78 8.78 0 0 1 3.42 1.47c1.58.92 3.21 1.86 4.91 1.86a4.2 4.2 0 0 0 1.29-.2c2.22-.72 3.24-3.06 4.15-5.12a8.75 8.75 0 0 1 1.8-3.07 8.8 8.8 0 0 1 3.52-.78c2.22-.23 4.74-.48 6.1-2.34s.81-4.31.35-6.48a8.68 8.68 0 0 1-.34-3.64 8.65 8.65 0 0 1 2.32-2.6c1.7-1.51 3.62-3.22 3.62-5.59s-1.94-4.09-3.63-5.6zm-27.52 16.92a11.33 11.33 0 1 1 11.33-11.33 11.33 11.33 0 0 1-11.33 11.34zM38.11 106.72h71.12a6.67 6.67 0 1 0 0-13.33H38.11a6.67 6.67 0 0 0 0 13.33zM38.11 139.61H135a6.67 6.67 0 1 0 0-13.33H38.11a6.67 6.67 0 0 0 0 13.33z"/></g></g></symbol><symbol id="scrollTo" viewBox="0 0 136.2 484.2"><g id="&#x421;&#x43B;&#x43E;&#x439;_2" data-name="&#x421;&#x43B;&#x43E;&#x439; 2"><g id="Design"><path class="cls-1" d="M63.4 0h11v473h-11z"/><path class="cls-1" d="M68.9 484.2L0 424.6l7.2-8.3L69 469.7l60.1-50.9 7.1 8.4-67.3 57z"/></g></g></symbol></svg>