<?xml version="1.0" encoding="utf-8"?>
<!-- Generator: Adobe Illustrator 20.1.0, SVG Export Plug-In . SVG Version: 6.00 Build 0)  -->
<svg version="1.1" id="Слой_1" xmlns="http://www.w3.org/2000/svg" xmlns:xlink="http://www.w3.org/1999/xlink" x="0px" y="0px"
	 viewBox="0 0 2500 2500" style="enable-background:new 0 0 2500 2500;" xml:space="preserve">
<style type="text/css">
	.st0{fill:none;}
	.st1{fill:#3C9CD7;}
	.st2{fill:#FFFFFF;}
	.st3{fill:url(#SVGID_1_);}
	.st4{fill:url(#SVGID_2_);}
	.st5{fill:url(#SVGID_3_);}
	.st6{opacity:5.000000e-02;enable-background:new    ;}
	.st7{fill:url(#SVGID_4_);}
	.st8{fill:#E44D26;}
	.st9{fill:#F16529;}
	.st10{fill:#EBEBEB;}
</style>
<path class="st0" d="M0,0h2500v2500H0V0z"/>
<path class="st1" d="M1250,717.2v1487.1l1.4,0.4l511.7-137.8l118.1-1349.7L1250,717.2L1250,717.2z"/>
<path class="st2" d="M1249.4,1112.4l-452.5,188.5l15,186.6l437.5-187.1l465.4-199l19.3-190.9L1249.4,1112.4L1249.4,1112.4z"/>
<linearGradient id="SVGID_1_" gradientUnits="userSpaceOnUse" x1="136.3704" y1="-328.4236" x2="136.3704" y2="-409.2246" gradientTransform="matrix(4.6418 0 0 4.6418 390.1509 3011.9773)">
	<stop  offset="0.387" style="stop-color:#D1D3D4;stop-opacity:0"/>
	<stop  offset="1" style="stop-color:#D1D3D4"/>
</linearGradient>
<path class="st3" d="M796.9,1300.9l15,186.6l437.5-187.1v-188L796.9,1300.9z"/>
<linearGradient id="SVGID_2_" gradientUnits="userSpaceOnUse" x1="237.3274" y1="-368.7246" x2="237.3274" y2="-452.7136" gradientTransform="matrix(4.6418 0 0 4.6418 390.1509 3011.9773)">
	<stop  offset="0.387" style="stop-color:#D1D3D4;stop-opacity:0"/>
	<stop  offset="1" style="stop-color:#D1D3D4"/>
</linearGradient>
<path class="st4" d="M1734.1,910.6l-484.7,201.9v188l465.4-199L1734.1,910.6z"/>
<linearGradient id="SVGID_3_" gradientUnits="userSpaceOnUse" x1="87.7754" y1="-292.3856" x2="281.8404" y2="-292.3856" gradientTransform="matrix(4.6418 0 0 4.6418 390.1509 3011.9773)">
	<stop  offset="0" style="stop-color:#E8E7E5"/>
	<stop  offset="1" style="stop-color:#FFFFFF"/>
</linearGradient>
<path class="st5" d="M797.6,1300.9l15,186.6l671.3,2.1l-15,248.8l-220.9,62.2l-212.4-53.6l-12.9-154.4H825.5l25.7,298.1l398.9,118
	l396.8-115.8l51.5-591.9H797.6z"/>
<path class="st6" d="M1249.4,1300.9H796.9l15,186.6l437.5,1.4L1249.4,1300.9L1249.4,1300.9z M1249.4,1800l-2.1,0.6L1035,1747
	l-12.9-154.4H824.8l25.7,298.1l398.9,118V1800z"/>
<linearGradient id="SVGID_4_" gradientUnits="userSpaceOnUse" x1="78.8464" y1="-432.1526" x2="289.5384" y2="-432.1526" gradientTransform="matrix(4.6418 0 0 4.6418 390.1509 3011.9773)">
	<stop  offset="0" style="stop-color:#E8E7E5"/>
	<stop  offset="1" style="stop-color:#FFFFFF"/>
</linearGradient>
<path class="st7" d="M756.1,910.6h978l-19.3,190.9H779.7L756.1,910.6L756.1,910.6z"/>
<path class="st6" d="M1249.4,910.6H756.1l23.6,190.9h469.7L1249.4,910.6L1249.4,910.6z"/>
<path class="st8" d="M2018.9,594.2l-140.3,1572l-630.8,174.9l-629-174.6L478.6,594.2H2018.9L2018.9,594.2z"/>
<path class="st9" d="M1248.7,2207.4l509.7-141.3l119.9-1343.4h-629.6V2207.4z"/>
<path class="st10" d="M975.9,1108.4h272.8V915.6H765.2l4.6,51.7l47.4,531.4h431.5v-192.8H993.6L975.9,1108.4z M1019.4,1595.1H825.8
	l27,302.8l395,109.6l0.9-0.2v-200.6l-0.8,0.2l-214.8-58L1019.4,1595.1L1019.4,1595.1z"/>
<path d="M621.9,166.9h98v96.8h89.6v-96.8h98v293.2h-98v-98.2h-89.6v98.2h-98L621.9,166.9L621.9,166.9z M1036.4,264.2h-86.3v-97.2
	h270.6v97.2h-86.3v196h-98L1036.4,264.2L1036.4,264.2L1036.4,264.2z M1263.6,166.9h102.2l62.9,103l62.8-103h102.2v293.2h-97.6V314.8
	L1428.7,419h-1.7l-67.5-104.2v145.3h-95.9V166.9z M1642.4,166.9h98v196.3h137.8v96.9h-235.8L1642.4,166.9L1642.4,166.9z"/>
<path class="st2" d="M1248.1,1498.7h237.4l-22.4,250.1l-215.1,58v200.6l395.3-109.6l2.9-32.6l45.3-507.7l4.7-51.8h-448.2V1498.7
	L1248.1,1498.7z M1248.1,1107.9v0.5h465.8l3.9-43.3l8.8-97.8l4.6-51.7h-483V1107.9L1248.1,1107.9z"/>
</svg>
