<?xml version="1.0" encoding="iso-8859-1"?>
<!-- Generator: Adobe Illustrator 19.0.0, SVG Export Plug-In . SVG Version: 6.00 Build 0)  -->
<svg xmlns="http://www.w3.org/2000/svg" xmlns:xlink="http://www.w3.org/1999/xlink" version="1.1" id="Layer_1" x="0px" y="0px" viewBox="0 0 512 512" style="enable-background:new 0 0 512 512;" xml:space="preserve" width="512px" height="512px">
<g>
	<g>
		<g>
			<rect x="47.995" y="168.68" width="416" height="15.61" fill="#FFFFFF"/>
			<path d="M511.805,163.736L256,31.708L0.196,163.736v52.56h511.61V163.736z M272.196,120.491c0,8.93-7.265,16.196-16.196,16.196     c-8.931,0-16.196-7.265-16.196-16.196s7.266-16.196,16.196-16.196C264.93,104.295,272.196,111.561,272.196,120.491z      M496.196,200.685H15.805v-16.39H32v-15.61h-7.361L248.195,53.302v36.355c-13.776,3.489-24.001,15.988-24.001,30.832     c0,17.538,14.267,31.805,31.805,31.805s31.805-14.267,31.805-31.805c0-14.845-10.224-27.344-24.001-30.832V53.302     l223.556,115.383H480v15.61h16.196V200.685z" fill="#FFFFFF"/>
			<rect x="16" y="440.685" width="480" height="15.61" fill="#FFFFFF"/>
			<rect x="0" y="464.683" width="512" height="15.61" fill="#FFFFFF"/>
			<path d="M24.001,416.686v15.61h64v-15.61h-8.195v-176.39h8.195v-15.61h-64v15.61h8.195v176.39H24.001z M47.805,240.296h16.39     v176.39h-16.39V240.296z" fill="#FFFFFF"/>
			<path d="M104.001,416.686v15.61h64v-15.61h-8.195v-176.39h8.195v-15.61h-64v15.61h8.195v176.39H104.001z M127.805,240.296h16.39     v176.39h-16.39V240.296z" fill="#FFFFFF"/>
			<path d="M184.001,416.686v15.61h64v-15.61h-8.195v-176.39h8.195v-15.61h-64v15.61h8.195v176.39H184.001z M207.805,240.296h16.39     v176.39h-16.39V240.296z" fill="#FFFFFF"/>
			<path d="M328,240.296v-15.61h-64v15.61h8.195v176.39h-8.195v15.61h64v-15.61h-8.195v-176.39H328z M304.196,416.686h-16.39     v-176.39h16.39V416.686z" fill="#FFFFFF"/>
			<path d="M344,416.686v15.61h64v-15.61h-8.195v-176.39H408v-15.61h-64v15.61h8.195v176.39H344z M367.805,240.296h16.39v176.39     h-16.39V240.296z" fill="#FFFFFF"/>
			<path d="M424,416.686v15.61h64v-15.61h-8.195v-176.39H488v-15.61h-64v15.61h8.195v176.39H424z M447.805,240.296h16.39v176.39     h-16.39V240.296z" fill="#FFFFFF"/>
		</g>
	</g>
</g>
<g>
</g>
<g>
</g>
<g>
</g>
<g>
</g>
<g>
</g>
<g>
</g>
<g>
</g>
<g>
</g>
<g>
</g>
<g>
</g>
<g>
</g>
<g>
</g>
<g>
</g>
<g>
</g>
<g>
</g>
</svg>
