<svg  xmlns="http://www.w3.org/2000/svg" viewBox="0 0 363.68 129"><circle cx="79.2" cy="106.75" r="22.25"/><circle cx="15.71" cy="70.07" r="15.71"/><circle cx="57.53" cy="27.93" r="11.08"/><circle cx="27.1" cy="8.98" r="8.98"/><polygon points="25.22 81.42 30.42 72.91 65.3 91.04 57.91 102.13 25.22 81.42"/><polygon points="21.7 55.54 30.15 64 53.85 38.26 47.15 31.83 21.7 55.54"/><polygon points="31.51 16.72 46.68 26.94 51.7 18.56 35.68 9.29 31.51 16.72"/><path d="M136.78,90.33h13.93V81.64h-13c-4.67,0-7.81-.66-10.14-3.42-1.75-2-1.82-5.18-1.82-9.47V38h-11v31.1c0,6.92.73,11.51,4.74,15.73,4.67,5,9.7,5.47,17.29,5.47Zm154.3-19.19c0-12-7.88-19.92-20.36-19.92s-20.43,8-20.43,19.92S258.18,91,270.72,91s20.36-8,20.36-19.84Zm-30.13,0c0-7.44,3.79-11.6,9.7-11.6s9.78,4.16,9.78,11.6-3.79,11.6-9.78,11.6-9.7-4.16-9.7-11.6Zm67.57-19.26V90.33h10.14v-30h8.17c5.76,0,6.71,1.53,6.71,6.86V90.33h10.14V66c0-10.21-4.67-14.08-16.05-14.08Zm-32.68,0V90.33H306V59.25h3.57c3.28,0,4.45.36,4.45,3.79v5h9.7V61.58c0-7.15-2.77-9.7-10.8-9.7ZM211,38V90.33h10.14V71.67l15.54,18.65H250.3l-17.8-19.6,17.8-18.8H237.46L221.11,70.36V38ZM171,51.88V90.33h10.14v-30h8.17c5.76,0,6.71,1.53,6.71,6.86V90.33h10.14V66c0-10.21-4.67-14.08-16.05-14.08Zm-4.82,38.45V51.88H155.53V90.33Zm0-42.75V38H155.53v9.56Z"/></svg>