<svg xmlns="http://www.w3.org/2000/svg" style="display: none;"><symbol id="delivery-truck" viewBox="0 0 512 512"><title>delivery-truck</title><g> <g> <path d="M506.922,249.331l-29.541-17.153l-16.877-72.109c-4.493-19.193-21.397-32.597-41.107-32.597h-84.891v-13.467 c0-5.633-4.567-10.199-10.199-10.199H10.199C4.567,103.806,0,108.372,0,114.005v243.111c0,5.633,4.567,10.199,10.199,10.199 h32.779c4.74,23.293,25.38,40.877,50.051,40.877s45.312-17.584,50.052-40.877h206.476v0.001 c4.74,23.293,25.38,40.877,50.051,40.877c24.671,0,45.312-17.584,50.052-40.877h52.142c5.632,0,10.199-4.566,10.199-10.199 v-98.966C512,254.517,510.066,251.157,506.922,249.331z M93.029,387.796c-16.915,0-30.677-13.763-30.677-30.678 s13.762-30.678,30.677-30.678c16.916,0,30.678,13.762,30.678,30.678S109.945,387.796,93.029,387.796z M314.109,310.344h-91.994 c-5.632,0-10.199,4.566-10.199,10.199c0,5.633,4.567,10.199,10.199,10.199h91.994v16.176H143.081 c-4.74-23.293-25.381-40.877-50.052-40.877c-24.671,0-45.311,17.583-50.051,40.877h-22.58v-52.75h293.711V310.344z M314.109,137.672v136.098H20.398V124.205h293.711V137.672z M393.671,147.872h25.728c10.187-0.001,18.924,6.927,21.244,16.846 l14.949,63.872h-61.92V147.872z M399.608,387.796c-16.228,0-29.546-12.669-30.602-28.635c0.135-0.66,0.205-1.343,0.205-2.043 c0-0.7-0.071-1.383-0.205-2.043c1.056-15.966,14.374-28.635,30.602-28.635c16.916,0,30.678,13.762,30.678,30.678 S416.524,387.796,399.608,387.796z M491.602,298.512h-19.403v-10.797h19.403V298.512z M491.602,267.317h-29.602 c-5.632,0-10.199,4.566-10.199,10.199v31.195c0,5.633,4.567,10.199,10.199,10.199h29.602v28.008h-41.942 c-4.74-23.293-25.381-40.877-50.052-40.877s-45.311,17.583-50.051,40.877h-15.05V147.871h38.766v90.918 c0,5.633,4.567,10.199,10.199,10.199h82.235l25.894,15.037V267.317z"/> </g> </g><g> <g> <path d="M187.693,310.344h-8.606c-5.632,0-10.199,4.566-10.199,10.199c0,5.633,4.566,10.199,10.199,10.199h8.606 c5.632,0,10.199-4.566,10.199-10.199C197.892,314.91,193.325,310.344,187.693,310.344z"/> </g> </g></symbol><symbol id="factory" viewBox="0 0 490 490"><title>factory</title><path d="m488.8,487.8v-253.3l-86.5,88.6v-88.6l-86.5,88.6v-88.6l-91.7,94.9-10.4-212.6h-76.1l-10.4,216.8h-24l-10.4-216.8h-75.1l-17.7,371.1h490v-0.1l-1.2,0zm-18.7-20.8h-448.2l15.7-329.4h36.5l10.4,216.8h65.7l10.4-216.8h35.4l10.4,216.9h24l66.7-68.8v68.8h19.8l66.7-68.8v68.8h19.8l66.7-68.8v181.3z"/><rect width="33.4" x="415.9" y="375.3" height="20.8"/><rect width="33.4" x="328.4" y="375.3" height="20.8"/><rect width="33.4" x="240.8" y="375.3" height="20.8"/><polygon points="186.6,50.1 214.8,15.7 199.1,2.1 165.8,42.8 165.8,101.2 186.6,101.2 "/><polygon points="59.5,50.1 88.6,15.7 72,2.1 38.6,42.8 38.6,101.2 59.5,101.2 "/></symbol><symbol id="first-aid-kit" viewBox="0 0 512 512"><title>first-aid-kit</title><g> <g> <path d="M469.635,128.432H360.032v-26.806c0-33.181-26.995-60.175-60.175-60.175h-87.713c-33.18,0-60.175,26.994-60.175,60.175 v26.807H42.365C19.005,128.432,0,147.438,0,170.798v257.385c0,23.36,19.005,42.365,42.365,42.365h427.269 c23.36,0,42.365-19.005,42.365-42.365V170.798C512,147.438,492.995,128.432,469.635,128.432z M172.367,101.627 c0-21.933,17.844-39.777,39.777-39.777h87.713c21.933,0,39.777,17.844,39.777,39.777v26.807H172.367V101.627z M491.602,428.183 c0,12.113-9.854,21.967-21.967,21.967H42.365c-12.113,0-21.967-9.854-21.967-21.967V170.798c0-12.113,9.854-21.967,21.967-21.967 h427.269c12.113,0,21.967,9.854,21.967,21.967V428.183z"/> </g> </g><g> <g> <path d="M369.211,251.225h-63.559v-63.559c0-5.633-4.567-10.199-10.199-10.199h-78.904c-5.632,0-10.199,4.566-10.199,10.199 v63.559h-63.56c-5.632,0-10.199,4.566-10.199,10.199v78.904c0,5.633,4.567,10.199,10.199,10.199h63.559v63.56 c0,5.633,4.567,10.199,10.199,10.199h78.904c5.632,0,10.199-4.566,10.199-10.199v-63.559h63.56 c5.632,0,10.199-4.566,10.199-10.199v-78.904C379.41,255.791,374.843,251.225,369.211,251.225z M359.012,330.13h-63.559 c-5.632,0-10.199,4.566-10.199,10.199v63.559h-58.506v-63.559c0-5.633-4.567-10.199-10.199-10.199h-63.56v-58.506h63.559 c5.632,0,10.199-4.566,10.199-10.199v-63.56h58.506v63.559c0,5.633,4.567,10.199,10.199,10.199h63.56V330.13z"/> </g> </g><g> <g> <path d="M159.108,162.167H87.713c-5.632,0-10.199,4.566-10.199,10.199c0,5.633,4.567,10.199,10.199,10.199h71.394 c5.632,0,10.199-4.566,10.199-10.199C169.307,166.734,164.74,162.167,159.108,162.167z"/> </g> </g><g> <g> <path d="M52.016,162.167h-5.1c-5.632,0-10.199,4.566-10.199,10.199c0,5.633,4.567,10.199,10.199,10.199h5.1 c5.632,0,10.199-4.566,10.199-10.199C62.215,166.734,57.648,162.167,52.016,162.167z"/> </g> </g></symbol><symbol id="megaphone" viewBox="0 0 512 512"><title>megaphone</title><path d="M449.511,137.648v-82.38c0-9.072-4.668-17.227-12.487-21.814c-7.849-4.605-17.29-4.7-25.251-0.247 c-76.024,42.516-158.725,67.345-245.805,73.802c-0.667,0.049-79.372,0.393-79.372,0.393c-19.767,0-36.105,14.923-38.366,34.091 H32.075C14.39,141.493,0,155.881,0,173.567v70.468c0,17.686,14.39,32.075,32.075,32.075h16.153 c1.628,13.795,10.544,25.383,22.785,30.799l57.485,158.648c3.593,9.875,13.067,16.511,23.578,16.511h57.687 c8.178,0,15.86-3.999,20.551-10.697c4.691-6.7,5.822-15.287,3.03-22.96l-49.389-136.237 c80.482,8.361,157.039,32.601,227.817,72.183c3.905,2.184,8.166,3.273,12.42,3.273c4.417-0.001,8.83-1.175,12.829-3.521 c7.819-4.588,12.489-12.742,12.489-21.816v-82.38C484.711,275.353,512,245.204,512,208.781 C512,172.357,484.711,142.207,449.511,137.648z M47.951,251.372H32.075c-4.047,0-7.338-3.291-7.338-7.338v-70.467 c0-4.044,3.291-7.337,7.338-7.337h15.876V251.372z M80.93,284.245c-4.85-2.174-8.242-7.039-8.242-12.688V146.044h0.001 c0-7.667,6.239-13.905,13.906-13.905h67.333v153.324c0,0-67.92-0.026-68.213-0.044C83.234,285.132,82.712,285.004,80.93,284.245z M210.091,456.853c0.04,0.101,0.066,0.173-0.041,0.324c-0.105,0.151-0.183,0.151-0.288,0.151h-57.687 c-0.147,0-0.282-0.093-0.327-0.215L98.515,310.199h58.411L210.091,456.853z M424.774,362.294c0,0.179,0,0.322-0.267,0.479 c-0.318,0.184-0.508,0.079-0.66-0.006c-76.034-42.52-158.469-68.045-245.182-75.96v-156.04 c86.72-7.927,169.155-33.454,245.179-75.97c0.156-0.085,0.349-0.19,0.663-0.006c0.267,0.157,0.267,0.298,0.267,0.477V362.294z M449.511,254.873v-92.185c21.503,4.314,37.752,23.339,37.752,46.092C487.263,231.534,471.013,250.56,449.511,254.873z"/></symbol><symbol id="money" viewBox="0 0 442.003 442.003"><title>money</title><path d="M337.897,189.476c-0.01-0.082-0.016-0.165-0.028-0.246c-0.058-0.404-0.135-0.807-0.244-1.205 c-0.001-0.004-0.003-0.008-0.004-0.013c-0.102-0.372-0.232-0.739-0.379-1.102c-0.042-0.104-0.088-0.204-0.133-0.306 c-0.116-0.262-0.245-0.52-0.385-0.774c-0.061-0.111-0.12-0.222-0.186-0.331c-0.035-0.059-0.063-0.12-0.1-0.179 c-0.148-0.235-0.31-0.456-0.474-0.675c-0.031-0.041-0.056-0.084-0.087-0.124c-0.25-0.324-0.52-0.625-0.803-0.91 c-0.053-0.054-0.111-0.104-0.166-0.156c-0.246-0.237-0.501-0.459-0.767-0.668c-0.068-0.053-0.134-0.106-0.204-0.157 c-0.356-0.264-0.723-0.51-1.106-0.723L185.506,98.164l84.825-53.414l142.207,80.832l-59.891,37.713 c-4.674,2.942-6.077,9.117-3.134,13.79c2.942,4.674,9.116,6.077,13.79,3.134l74.026-46.613c2.976-1.873,4.749-5.172,4.669-8.688 c-0.079-3.516-1.998-6.73-5.056-8.468L275.009,24.404c-3.203-1.822-7.15-1.732-10.27,0.231L160.783,90.096 c-0.021,0.013-0.043,0.027-0.064,0.04l-51.947,32.711c-0.024,0.015-0.048,0.03-0.071,0.045L4.674,188.398 c-2.976,1.873-4.749,5.172-4.669,8.688c0.079,3.516,1.998,6.73,5.056,8.468l161.934,92.046c1.534,0.873,3.238,1.307,4.941,1.307 c1.853,0,3.703-0.515,5.328-1.538l74.026-46.614c4.674-2.942,6.077-9.117,3.134-13.79c-2.941-4.674-9.117-6.078-13.79-3.134 l-68.961,43.424L29.466,196.421l84.826-53.415l151.67,86.212v114.182c0,3.642,1.979,6.995,5.167,8.755 c1.507,0.832,3.171,1.245,4.833,1.245c1.854,0,3.704-0.515,5.328-1.538l52.014-32.753c2.908-1.831,4.672-5.026,4.672-8.462v-120 c0-0.059-0.01-0.115-0.012-0.174C337.958,190.141,337.936,189.809,337.897,189.476z M285.962,325.287V223.401 c0-3.597-1.932-6.916-5.059-8.693l-147.411-83.791l32.813-20.663l142.206,80.833l-12.451,7.84 c-4.674,2.942-6.077,9.117-3.134,13.79c1.9,3.02,5.149,4.673,8.472,4.673c1.82,0,3.664-0.497,5.318-1.539l11.259-7.089v96.366 L285.962,325.287z"/><path d="M426.674,156.681l-74.026,46.613c-4.674,2.942-6.077,9.117-3.134,13.79c1.9,3.02,5.149,4.673,8.472,4.673 c1.82,0,3.664-0.497,5.318-1.539l74.026-46.613c4.674-2.942,6.077-9.117,3.134-13.79 C437.522,155.141,431.347,153.737,426.674,156.681z"/><path d="M240.633,273.83l-68.961,43.424L14.943,228.167c-4.798-2.728-10.906-1.052-13.635,3.752 c-2.729,4.801-1.05,10.906,3.752,13.635l161.934,92.046c1.534,0.873,3.238,1.307,4.941,1.307c1.853,0,3.703-0.515,5.328-1.538 l74.026-46.614c4.674-2.942,6.077-9.117,3.134-13.79C251.482,272.29,245.306,270.886,240.633,273.83z"/><path d="M426.674,196.681l-74.026,46.613c-4.674,2.942-6.077,9.117-3.134,13.79c1.9,3.02,5.149,4.673,8.472,4.673 c1.82,0,3.664-0.497,5.318-1.539l74.026-46.613c4.674-2.942,6.077-9.117,3.134-13.79 C437.522,195.14,431.347,193.737,426.674,196.681z"/><path d="M240.633,313.83l-68.961,43.424L14.943,268.167c-4.798-2.728-10.906-1.052-13.635,3.752 c-2.729,4.801-1.05,10.906,3.752,13.635l161.934,92.046c1.534,0.873,3.238,1.307,4.941,1.307c1.853,0,3.703-0.515,5.328-1.538 l74.026-46.614c4.674-2.942,6.077-9.117,3.134-13.79C251.482,312.289,245.306,310.886,240.633,313.83z"/><path d="M426.674,236.681l-74.026,46.613c-4.674,2.942-6.077,9.117-3.134,13.79c1.9,3.02,5.149,4.673,8.472,4.673 c1.82,0,3.664-0.497,5.318-1.539l74.026-46.613c4.674-2.942,6.077-9.117,3.134-13.79 C437.522,235.141,431.347,233.738,426.674,236.681z"/><path d="M240.633,353.83l-68.961,43.424L14.943,308.167c-4.798-2.728-10.906-1.052-13.635,3.752 c-2.729,4.801-1.05,10.906,3.752,13.635l161.934,92.046c1.534,0.873,3.238,1.307,4.941,1.307c1.853,0,3.703-0.515,5.328-1.538 l74.026-46.614c4.674-2.942,6.077-9.117,3.134-13.79C251.482,352.29,245.306,350.886,240.633,353.83z"/></symbol><symbol id="shopping-cart" viewBox="0 0 512 512"><title>shopping-cart</title><path d="m161.1,298.7h288.8l51.1-182.4h-75.2l-27-83.4-112.6,36.5 15.4,46.9h-5.3l-27.8-83.4-112.6,36.5 15.4,46.9h-60.2l-12.5-50c-6.3-25-28.1-42.7-53.2-42.7h-34.4v20.9h34.4c15.6,0 29.2,10.4 33.4,26.1l55.3,216.4c-11.4,8.2-18.9,21.6-18.9,36.9 0,25 20.9,45.9 45.9,45.9h281.5v-20.9h-281.5c-13.6,0-25-11.5-25-25 0-13.7 11.5-25.2 25-25.2zm224.2-239.8l18.8,56.3h-81.3l-11.5-32.3 74-24zm-130.3,0l18.8,56.3h-81.3l-11.5-32.3 74-24zm218.9,77.2l-39.6,141.8h-281.5l-36.5-141.8h357.6z"/><path d="m350.9,400.9c-24,0-43.8,19.8-43.8,43.8 0,24 19.8,43.8 43.8,43.8 25,0 43.8-19.8 43.8-43.8 0-24-19.8-43.8-43.8-43.8zm0,67.8c-13.6,0-24-11.5-24-24 0-13.6 11.5-24 24-24 13.6,0 24,10.4 24,24 0,13.6-11.5,24-24,24z"/><path d="m190.3,400.9c-24,0-43.8,19.8-43.8,43.8 0,24 19.8,43.8 43.8,43.8 24,0 43.8-19.8 43.8-43.8-2.84217e-14-24-19.8-43.8-43.8-43.8zm0,67.8c-13.6,0-24-11.5-24-24 0-13.6 11.5-24 24-24 12.5,0 24,10.4 24,24 0,13.6-11.5,24-24,24z"/></symbol><symbol id="theatre" viewBox="0 0 512 512"><title>theatre</title><rect x="47.995" y="168.68" width="416" height="15.61"/><path d="M511.805,163.736L256,31.708L0.196,163.736v52.56h511.61V163.736z M272.196,120.491c0,8.93-7.265,16.196-16.196,16.196 c-8.931,0-16.196-7.265-16.196-16.196s7.266-16.196,16.196-16.196C264.93,104.295,272.196,111.561,272.196,120.491z M496.196,200.685H15.805v-16.39H32v-15.61h-7.361L248.195,53.302v36.355c-13.776,3.489-24.001,15.988-24.001,30.832 c0,17.538,14.267,31.805,31.805,31.805s31.805-14.267,31.805-31.805c0-14.845-10.224-27.344-24.001-30.832V53.302 l223.556,115.383H480v15.61h16.196V200.685z"/><rect x="16" y="440.685" width="480" height="15.61"/><rect x="0" y="464.683" width="512" height="15.61"/><path d="M24.001,416.686v15.61h64v-15.61h-8.195v-176.39h8.195v-15.61h-64v15.61h8.195v176.39H24.001z M47.805,240.296h16.39 v176.39h-16.39V240.296z"/><path d="M104.001,416.686v15.61h64v-15.61h-8.195v-176.39h8.195v-15.61h-64v15.61h8.195v176.39H104.001z M127.805,240.296h16.39 v176.39h-16.39V240.296z"/><path d="M184.001,416.686v15.61h64v-15.61h-8.195v-176.39h8.195v-15.61h-64v15.61h8.195v176.39H184.001z M207.805,240.296h16.39 v176.39h-16.39V240.296z"/><path d="M328,240.296v-15.61h-64v15.61h8.195v176.39h-8.195v15.61h64v-15.61h-8.195v-176.39H328z M304.196,416.686h-16.39 v-176.39h16.39V416.686z"/><path d="M344,416.686v15.61h64v-15.61h-8.195v-176.39H408v-15.61h-64v15.61h8.195v176.39H344z M367.805,240.296h16.39v176.39 h-16.39V240.296z"/><path d="M424,416.686v15.61h64v-15.61h-8.195v-176.39H488v-15.61h-64v15.61h8.195v176.39H424z M447.805,240.296h16.39v176.39 h-16.39V240.296z"/></symbol><symbol id="transport" viewBox="0 0 512 512"><title>transport</title><path d="M496.079,15.928C485.804,5.652,472.131,0,457.581,0c-0.005,0-0.005,0-0.005,0c-14.561,0-28.244,5.658-38.524,15.942 l-77.59,77.582L88.678,30.329c-3.701-0.909-7.636,0.16-10.344,2.866L39.832,71.697c-2.51,2.505-3.637,6.079-3.031,9.573 c0.612,3.494,2.882,6.472,6.095,7.982l205.926,96.911l-91.848,91.848L34.354,295.869c-2.324,0.34-4.473,1.42-6.132,3.079 L3.19,323.975c-2.712,2.712-3.797,6.653-2.856,10.37c0.941,3.723,3.771,6.674,7.445,7.77l107.063,31.903l20.778,20.772 l34.312,109.573c1.138,3.637,4.095,6.414,7.791,7.323c0.862,0.213,1.734,0.314,2.601,0.314c2.856,0,5.637-1.122,7.701-3.191 l25.027-25.032c1.659-1.659,2.739-3.808,3.079-6.132l17.858-122.618l91.226-91.231l89.769,197.475 c1.479,3.255,4.456,5.573,7.972,6.212c3.489,0.633,7.121-0.489,9.642-3.016l38.508-38.508c2.654-2.654,3.755-6.488,2.914-10.152 l-56.403-244.407l78.447-78.449C517.303,71.71,517.313,37.156,496.079,15.928z M480.661,77.547l-82.717,82.717 c-2.654,2.654-3.755,6.488-2.914,10.152l56.403,244.407l-23.123,23.128l-89.769-197.475c-1.479-3.255-4.456-5.573-7.972-6.212 c-3.499-0.638-7.121,0.489-9.642,3.015L216.029,342.178c-1.659,1.659-2.739,3.808-3.079,6.132l-17.858,122.618l-9.748,9.759 l-29.739-94.959c-0.521-1.675-1.446-3.201-2.691-4.446l-24.617-24.617c-1.276-1.282-2.856-2.223-4.589-2.739l-92.194-27.468 l9.551-9.551l122.624-17.858c2.324-0.34,4.473-1.42,6.132-3.079l105.361-105.361c2.51-2.505,3.638-6.078,3.031-9.572 c-0.612-3.494-2.888-6.472-6.095-7.982L66.193,76.143l23.182-23.187l252.783,63.195c3.723,0.931,7.637-0.154,10.344-2.866 l81.951-81.946c6.169-6.169,14.38-9.567,23.123-9.567c8.738,0,16.943,3.393,23.101,9.551 C493.414,44.064,493.409,64.799,480.661,77.547z"/></symbol></svg>