<svg xmlns="http://www.w3.org/2000/svg" viewBox="0 0 503.7 503.7"><defs>
<style>
.cls-1{
    fill:none;
    stroke:#fff;
    stroke-miterlimit:10;
    opacity:0.4;
}
.cls-2,.cls-3{
    fill:#fff;
}.cls-3{
    opacity:0.4;
}</style>

</defs>
<filter id="pb">
    <feGaussianBlur in="SourceGraphic" stdDeviation="3" />
  </filter>
  <radialGradient id="radGrad">
  <stop offset="0" stop-color="white" stop-opacity="1"/>
  <stop offset="1" stop-color="white" stop-opacity="0"/>
</radialGradient>
<mask id="mask">
  <circle id="c" cx="25.32" cy="141.88" r="16" fill="url(#radGrad)" 
   stroke-width="6" stroke-dasharray="6.28"/>
</mask>

<filter id="ds">
    <feGaussianBlur in="SourceAlpha" stdDeviation="0.2" />
    <feOffset dx="0" dy="0" />
    <feMerge>
        <feMergeNode />
        <feMergeNode in="SourceGraphic" />
    </feMerge>
  </filter>

<circle class="cls-1" cx="251.85" cy="251.85" r="251.35"/><path filter="url(#pb)" class="cls-2" d="M93.41,56.72l-3.52,3c-1.13,1-2.47,2.15-4,3.54l-2.43,2.2L80.84,68C79,69.72,77.06,71.67,75,73.74c-1,1-2.05,2.1-3.09,3.22s-2.12,2.23-3.18,3.4c-2.1,2.37-4.3,4.78-6.41,7.34S58.1,92.88,56,95.5s-4.09,5.35-6,8.07-3.74,5.41-5.52,8L42,115.51c-.82,1.27-1.61,2.53-2.34,3.78l-2.17,3.61c-.69,1.17-1.32,2.33-1.94,3.42l-1.77,3.16-1.52,2.89c-1,1.81-1.79,3.39-2.43,4.72l-2,4.14-2.69-1.33,2.19-4.13c.68-1.32,1.56-2.9,2.58-4.7l1.62-2.87,1.87-3.14c.66-1.09,1.33-2.24,2.06-3.4l2.29-3.58c.77-1.24,1.6-2.49,2.47-3.75l2.63-3.88c1.86-2.58,3.73-5.28,5.78-7.92s4.14-5.31,6.25-8,4.34-5.21,6.59-7.67,4.47-4.88,6.64-7.19c1.1-1.14,2.21-2.24,3.29-3.33s2.13-2.15,3.19-3.14c2.1-2,4.09-3.91,6-5.59l2.7-2.44,2.49-2.14c1.56-1.35,2.93-2.51,4.09-3.43Z"/>

<g mask="url(#mask)"><circle class="cls-3" cx="25.32" cy="141.88" r="20" filter="url(#pb)" /></g>
<circle class="cls-2" filter="url(#ds)" cx="25.32" cy="141.88" r="3.92"/></svg>