<?xml version="1.0" encoding="UTF-8"?><!DOCTYPE svg PUBLIC "-//W3C//DTD SVG 1.1//EN" "http://www.w3.org/Graphics/SVG/1.1/DTD/svg11.dtd"><svg xmlns="http://www.w3.org/2000/svg"><symbol id="delivery-truck" viewBox="0 0 512 512"><path d="M506.922 249.331l-29.541-17.153-16.877-72.109c-4.493-19.193-21.397-32.597-41.107-32.597h-84.891v-13.467c0-5.633-4.567-10.199-10.199-10.199H10.199C4.567 103.806 0 108.372 0 114.005v243.111c0 5.633 4.567 10.199 10.199 10.199h32.779c4.74 23.293 25.38 40.877 50.051 40.877s45.312-17.584 50.052-40.877h206.476v.001c4.74 23.293 25.38 40.877 50.051 40.877 24.671 0 45.312-17.584 50.052-40.877h52.142c5.632 0 10.199-4.566 10.199-10.199v-98.966a10.203 10.203 0 0 0-5.079-8.82zM93.029 387.796c-16.915 0-30.677-13.763-30.677-30.678s13.762-30.678 30.677-30.678c16.916 0 30.678 13.762 30.678 30.678s-13.762 30.678-30.678 30.678zm221.08-77.452h-91.994c-5.632 0-10.199 4.566-10.199 10.199s4.567 10.199 10.199 10.199h91.994v16.176H143.081c-4.74-23.293-25.381-40.877-50.052-40.877s-45.311 17.583-50.051 40.877h-22.58v-52.75h293.711v16.176zm0-172.672V273.77H20.398V124.205h293.711v13.467zm79.562 10.2h25.728c10.187-.001 18.924 6.927 21.244 16.846l14.949 63.872h-61.92v-80.718zm5.937 239.924c-16.228 0-29.546-12.669-30.602-28.635a10.258 10.258 0 0 0 0-4.086c1.056-15.966 14.374-28.635 30.602-28.635 16.916 0 30.678 13.762 30.678 30.678s-13.762 30.678-30.678 30.678zm91.994-89.284h-19.403v-10.797h19.403v10.797zm0-31.195H462c-5.632 0-10.199 4.566-10.199 10.199v31.195c0 5.633 4.567 10.199 10.199 10.199h29.602v28.008H449.66c-4.74-23.293-25.381-40.877-50.052-40.877s-45.311 17.583-50.051 40.877h-15.05V147.871h38.766v90.918c0 5.633 4.567 10.199 10.199 10.199h82.235l25.894 15.037v3.292z"/><path d="M187.693 310.344h-8.606c-5.632 0-10.199 4.566-10.199 10.199s4.566 10.199 10.199 10.199h8.606c5.632 0 10.199-4.566 10.199-10.199s-4.567-10.199-10.199-10.199z"/></symbol><symbol id="factory" viewBox="0 0 490 490"><path d="M488.8 487.8V234.5l-86.5 88.6v-88.6l-86.5 88.6v-88.6l-91.7 94.9-10.4-212.6h-76.1l-10.4 216.8h-24L92.8 116.8H17.7L0 487.9h490v-.1h-1.2zM470.1 467H21.9l15.7-329.4h36.5l10.4 216.8h65.7l10.4-216.8H196l10.4 216.9h24l66.7-68.8v68.8h19.8l66.7-68.8v68.8h19.8l66.7-68.8V467z"/><path d="M415.9 375.3h33.4v20.8h-33.4zM328.4 375.3h33.4v20.8h-33.4zM240.8 375.3h33.4v20.8h-33.4zM186.6 50.1l28.2-34.4-15.7-13.6-33.3 40.7v58.4h20.8zM59.5 50.1l29.1-34.4L72 2.1 38.6 42.8v58.4h20.9z"/></symbol><symbol id="first-aid-kit" viewBox="0 0 512 512"><path d="M469.635 128.432H360.032v-26.806c0-33.181-26.995-60.175-60.175-60.175h-87.713c-33.18 0-60.175 26.994-60.175 60.175v26.807H42.365C19.005 128.432 0 147.438 0 170.798v257.385c0 23.36 19.005 42.365 42.365 42.365h427.269c23.36 0 42.365-19.005 42.365-42.365V170.798c.001-23.36-19.004-42.366-42.364-42.366zm-297.268-26.805c0-21.933 17.844-39.777 39.777-39.777h87.713c21.933 0 39.777 17.844 39.777 39.777v26.807H172.367v-26.807zm319.235 326.556c0 12.113-9.854 21.967-21.967 21.967H42.365c-12.113 0-21.967-9.854-21.967-21.967V170.798c0-12.113 9.854-21.967 21.967-21.967h427.269c12.113 0 21.967 9.854 21.967 21.967v257.385z"/><path d="M369.211 251.225h-63.559v-63.559c0-5.633-4.567-10.199-10.199-10.199h-78.904c-5.632 0-10.199 4.566-10.199 10.199v63.559h-63.56c-5.632 0-10.199 4.566-10.199 10.199v78.904c0 5.633 4.567 10.199 10.199 10.199h63.559v63.56c0 5.633 4.567 10.199 10.199 10.199h78.904c5.632 0 10.199-4.566 10.199-10.199v-63.559h63.56c5.632 0 10.199-4.566 10.199-10.199v-78.904c0-5.634-4.567-10.2-10.199-10.2zm-10.199 78.905h-63.559c-5.632 0-10.199 4.566-10.199 10.199v63.559h-58.506v-63.559c0-5.633-4.567-10.199-10.199-10.199h-63.56v-58.506h63.559c5.632 0 10.199-4.566 10.199-10.199v-63.56h58.506v63.559c0 5.633 4.567 10.199 10.199 10.199h63.56v58.507zM159.108 162.167H87.713c-5.632 0-10.199 4.566-10.199 10.199s4.567 10.199 10.199 10.199h71.394c5.632 0 10.199-4.566 10.199-10.199.001-5.632-4.566-10.199-10.198-10.199zM52.016 162.167h-5.1c-5.632 0-10.199 4.566-10.199 10.199s4.567 10.199 10.199 10.199h5.1c5.632 0 10.199-4.566 10.199-10.199 0-5.632-4.567-10.199-10.199-10.199z"/></symbol><symbol id="megaphone" viewBox="0 0 512 512"><path d="M449.511 137.648v-82.38c0-9.072-4.668-17.227-12.487-21.814-7.849-4.605-17.29-4.7-25.251-.247-76.024 42.516-158.725 67.345-245.805 73.802-.667.049-79.372.393-79.372.393-19.767 0-36.105 14.923-38.366 34.091H32.075C14.39 141.493 0 155.881 0 173.567v70.468c0 17.686 14.39 32.075 32.075 32.075h16.153c1.628 13.795 10.544 25.383 22.785 30.799l57.485 158.648c3.593 9.875 13.067 16.511 23.578 16.511h57.687a25.11 25.11 0 0 0 20.551-10.697 25.107 25.107 0 0 0 3.03-22.96l-49.389-136.237c80.482 8.361 157.039 32.601 227.817 72.183 3.905 2.184 8.166 3.273 12.42 3.273 4.417-.001 8.83-1.175 12.829-3.521 7.819-4.588 12.489-12.742 12.489-21.816v-82.38c35.201-4.56 62.49-34.709 62.49-71.132 0-36.424-27.289-66.574-62.489-71.133zM47.951 251.372H32.075a7.345 7.345 0 0 1-7.338-7.338v-70.467c0-4.044 3.291-7.337 7.338-7.337h15.876v85.142zm32.979 32.873c-4.85-2.174-8.242-7.039-8.242-12.688V146.044h.001c0-7.667 6.239-13.905 13.906-13.905h67.333v153.324s-67.92-.026-68.213-.044c-2.481-.287-3.003-.415-4.785-1.174zm129.161 172.608c.04.101.066.173-.041.324-.105.151-.183.151-.288.151h-57.687a.352.352 0 0 1-.327-.215L98.515 310.199h58.411l53.165 146.654zm214.683-94.559c0 .179 0 .322-.267.479-.318.184-.508.079-.66-.006-76.034-42.52-158.469-68.045-245.182-75.96v-156.04c86.72-7.927 169.155-33.454 245.179-75.97.156-.085.349-.19.663-.006.267.157.267.298.267.477v307.026zm24.737-107.421v-92.185c21.503 4.314 37.752 23.339 37.752 46.092 0 22.754-16.25 41.78-37.752 46.093z"/></symbol><symbol id="money" viewBox="0 0 442.003 442.003"><path d="M337.897 189.476c-.01-.082-.016-.165-.028-.246a9.855 9.855 0 0 0-.244-1.205l-.004-.013a9.962 9.962 0 0 0-.379-1.102c-.042-.104-.088-.204-.133-.306a9.948 9.948 0 0 0-.385-.774c-.061-.111-.12-.222-.186-.331-.035-.059-.063-.12-.1-.179-.148-.235-.31-.456-.474-.675-.031-.041-.056-.084-.087-.124a9.722 9.722 0 0 0-.803-.91c-.053-.054-.111-.104-.166-.156a10.075 10.075 0 0 0-.767-.668c-.068-.053-.134-.106-.204-.157-.356-.264-.723-.51-1.106-.723L185.506 98.164l84.825-53.414 142.207 80.832-59.891 37.713c-4.674 2.942-6.077 9.117-3.134 13.79 2.942 4.674 9.116 6.077 13.79 3.134l74.026-46.613a9.996 9.996 0 0 0 4.669-8.688 9.996 9.996 0 0 0-5.056-8.468L275.009 24.404a10.001 10.001 0 0 0-10.27.231L160.783 90.096l-.064.04-51.947 32.711a4.4 4.4 0 0 0-.071.045L4.674 188.398a9.996 9.996 0 0 0-4.669 8.688 9.996 9.996 0 0 0 5.056 8.468L166.995 297.6a9.995 9.995 0 0 0 10.269-.231l74.026-46.614c4.674-2.942 6.077-9.117 3.134-13.79-2.941-4.674-9.117-6.078-13.79-3.134l-68.961 43.424-142.207-80.834 84.826-53.415 151.67 86.212V343.4a10 10 0 0 0 15.328 8.462l52.014-32.753a10 10 0 0 0 4.672-8.462v-120c0-.059-.01-.115-.012-.174a10.135 10.135 0 0 0-.067-.997zm-51.935 135.811V223.401a9.998 9.998 0 0 0-5.059-8.693l-147.411-83.791 32.813-20.663 142.206 80.833-12.451 7.84c-4.674 2.942-6.077 9.117-3.134 13.79a9.988 9.988 0 0 0 8.472 4.673 9.95 9.95 0 0 0 5.318-1.539l11.259-7.089v96.366l-32.013 20.159z"/><path d="M426.674 156.681l-74.026 46.613c-4.674 2.942-6.077 9.117-3.134 13.79a9.988 9.988 0 0 0 8.472 4.673 9.95 9.95 0 0 0 5.318-1.539l74.026-46.613c4.674-2.942 6.077-9.117 3.134-13.79-2.942-4.674-9.117-6.078-13.79-3.134zM240.633 273.83l-68.961 43.424-156.729-89.087c-4.798-2.728-10.906-1.052-13.635 3.752-2.729 4.801-1.05 10.906 3.752 13.635L166.994 337.6a9.995 9.995 0 0 0 10.269-.231l74.026-46.614c4.674-2.942 6.077-9.117 3.134-13.79-2.941-4.675-9.117-6.079-13.79-3.135zM426.674 196.681l-74.026 46.613c-4.674 2.942-6.077 9.117-3.134 13.79a9.988 9.988 0 0 0 8.472 4.673 9.95 9.95 0 0 0 5.318-1.539l74.026-46.613c4.674-2.942 6.077-9.117 3.134-13.79-2.942-4.675-9.117-6.078-13.79-3.134z"/><path d="M240.633 313.83l-68.961 43.424-156.729-89.087c-4.798-2.728-10.906-1.052-13.635 3.752-2.729 4.801-1.05 10.906 3.752 13.635L166.994 377.6a9.995 9.995 0 0 0 10.269-.231l74.026-46.614c4.674-2.942 6.077-9.117 3.134-13.79-2.941-4.676-9.117-6.079-13.79-3.135zM426.674 236.681l-74.026 46.613c-4.674 2.942-6.077 9.117-3.134 13.79a9.988 9.988 0 0 0 8.472 4.673 9.95 9.95 0 0 0 5.318-1.539l74.026-46.613c4.674-2.942 6.077-9.117 3.134-13.79-2.942-4.674-9.117-6.077-13.79-3.134z"/><path d="M240.633 353.83l-68.961 43.424-156.729-89.087c-4.798-2.728-10.906-1.052-13.635 3.752-2.729 4.801-1.05 10.906 3.752 13.635L166.994 417.6a9.995 9.995 0 0 0 10.269-.231l74.026-46.614c4.674-2.942 6.077-9.117 3.134-13.79-2.941-4.675-9.117-6.079-13.79-3.135z"/></symbol><symbol id="shopping-cart" viewBox="0 0 512 512"><path d="M161.1 298.7h288.8L501 116.3h-75.2l-27-83.4-112.6 36.5 15.4 46.9h-5.3l-27.8-83.4-112.6 36.5 15.4 46.9h-60.2l-12.5-50c-6.3-25-28.1-42.7-53.2-42.7H11v20.9h34.4c15.6 0 29.2 10.4 33.4 26.1L134.1 287c-11.4 8.2-18.9 21.6-18.9 36.9 0 25 20.9 45.9 45.9 45.9h281.5v-20.9H161.1c-13.6 0-25-11.5-25-25 0-13.7 11.5-25.2 25-25.2zM385.3 58.9l18.8 56.3h-81.3l-11.5-32.3 74-24zm-130.3 0l18.8 56.3h-81.3L181 82.9l74-24zm218.9 77.2l-39.6 141.8H152.8l-36.5-141.8h357.6zM350.9 400.9c-24 0-43.8 19.8-43.8 43.8 0 24 19.8 43.8 43.8 43.8 25 0 43.8-19.8 43.8-43.8 0-24-19.8-43.8-43.8-43.8zm0 67.8c-13.6 0-24-11.5-24-24 0-13.6 11.5-24 24-24 13.6 0 24 10.4 24 24s-11.5 24-24 24zM190.3 400.9c-24 0-43.8 19.8-43.8 43.8 0 24 19.8 43.8 43.8 43.8 24 0 43.8-19.8 43.8-43.8 0-24-19.8-43.8-43.8-43.8zm0 67.8c-13.6 0-24-11.5-24-24 0-13.6 11.5-24 24-24s24 10.4 24 24-11.5 24-24 24z"/></symbol><symbol id="theatre" viewBox="0 0 512 512"><path d="M47.995 168.68h416v15.61h-416z"/><path d="M511.805 163.736L256 31.708.196 163.736v52.56h511.61v-52.56zm-239.609-43.245c0 8.93-7.265 16.196-16.196 16.196-8.931 0-16.196-7.265-16.196-16.196s7.266-16.196 16.196-16.196c8.93 0 16.196 7.266 16.196 16.196zm224 80.194H15.805v-16.39H32v-15.61h-7.361L248.195 53.302v36.355c-13.776 3.489-24.001 15.988-24.001 30.832 0 17.538 14.267 31.805 31.805 31.805s31.805-14.267 31.805-31.805c0-14.845-10.224-27.344-24.001-30.832V53.302l223.556 115.383H480v15.61h16.196v16.39zM16 440.685h480v15.61H16zM0 464.683h512v15.61H0zM24.001 416.686v15.61h64v-15.61h-8.195v-176.39h8.195v-15.61h-64v15.61h8.195v176.39h-8.195zm23.804-176.39h16.39v176.39h-16.39v-176.39zM104.001 416.686v15.61h64v-15.61h-8.195v-176.39h8.195v-15.61h-64v15.61h8.195v176.39h-8.195zm23.804-176.39h16.39v176.39h-16.39v-176.39zM184.001 416.686v15.61h64v-15.61h-8.195v-176.39h8.195v-15.61h-64v15.61h8.195v176.39h-8.195zm23.804-176.39h16.39v176.39h-16.39v-176.39zM328 240.296v-15.61h-64v15.61h8.195v176.39H264v15.61h64v-15.61h-8.195v-176.39H328zm-23.804 176.39h-16.39v-176.39h16.39v176.39zM344 416.686v15.61h64v-15.61h-8.195v-176.39H408v-15.61h-64v15.61h8.195v176.39H344zm23.805-176.39h16.39v176.39h-16.39v-176.39zM424 416.686v15.61h64v-15.61h-8.195v-176.39H488v-15.61h-64v15.61h8.195v176.39H424zm23.805-176.39h16.39v176.39h-16.39v-176.39z"/></symbol><symbol id="transport" viewBox="0 0 512 512"><path d="M496.079 15.928C485.804 5.652 472.131 0 457.581 0h-.005c-14.561 0-28.244 5.658-38.524 15.942l-77.59 77.582L88.678 30.329c-3.701-.909-7.636.16-10.344 2.866L39.832 71.697a10.894 10.894 0 0 0-3.031 9.573 10.89 10.89 0 0 0 6.095 7.982l205.926 96.911-91.848 91.848-122.62 17.858a10.901 10.901 0 0 0-6.132 3.079L3.19 323.975a10.893 10.893 0 0 0 4.589 18.14l107.063 31.903 20.778 20.772 34.312 109.573A10.892 10.892 0 0 0 180.324 512c2.856 0 5.637-1.122 7.701-3.191l25.027-25.032a10.901 10.901 0 0 0 3.079-6.132l17.858-122.618 91.226-91.231 89.769 197.475a10.89 10.89 0 0 0 7.972 6.212 10.914 10.914 0 0 0 9.642-3.016l38.508-38.508a10.903 10.903 0 0 0 2.914-10.152L417.617 171.4l78.447-78.449c21.239-21.241 21.249-55.795.015-77.023zm-15.418 61.619l-82.717 82.717a10.903 10.903 0 0 0-2.914 10.152l56.403 244.407-23.123 23.128-89.769-197.475a10.89 10.89 0 0 0-17.614-3.197L216.029 342.178a10.901 10.901 0 0 0-3.079 6.132l-17.858 122.618-9.748 9.759-29.739-94.959a10.85 10.85 0 0 0-2.691-4.446l-24.617-24.617a10.84 10.84 0 0 0-4.589-2.739l-92.194-27.468 9.551-9.551 122.624-17.858a10.901 10.901 0 0 0 6.132-3.079l105.361-105.361a10.889 10.889 0 0 0 3.031-9.572 10.905 10.905 0 0 0-6.095-7.982L66.193 76.143l23.182-23.187 252.783 63.195a10.864 10.864 0 0 0 10.344-2.866l81.951-81.946c6.169-6.169 14.38-9.567 23.123-9.567 8.738 0 16.943 3.393 23.101 9.551 12.737 12.741 12.732 33.476-.016 46.224z"/></symbol><symbol id="facebook" viewBox="0 0 96.124 96.123"><path d="M72.089.02L59.624 0C45.62 0 36.57 9.285 36.57 23.656v10.907H24.037a1.96 1.96 0 0 0-1.96 1.961v15.803a1.96 1.96 0 0 0 1.96 1.96H36.57v39.876a1.96 1.96 0 0 0 1.96 1.96h16.352a1.96 1.96 0 0 0 1.96-1.96V54.287h14.654a1.96 1.96 0 0 0 1.96-1.96l.006-15.803a1.963 1.963 0 0 0-1.961-1.961H56.842v-9.246c0-4.444 1.059-6.7 6.848-6.7l8.397-.003a1.96 1.96 0 0 0 1.959-1.96V1.98A1.96 1.96 0 0 0 72.089.02z"/></symbol><symbol id="google-plus" viewBox="0 0 315 315"><path d="M307.5 136.892h-19.791V117.1c0-4.143-3.357-7.5-7.5-7.5h-26.717a7.499 7.499 0 0 0-7.5 7.5v19.792h-19.791a7.499 7.499 0 0 0-7.5 7.5v26.717c0 4.143 3.357 7.5 7.5 7.5h19.791v19.792a7.5 7.5 0 0 0 7.5 7.5h26.717a7.5 7.5 0 0 0 7.5-7.5v-19.792H307.5c4.143 0 7.5-3.357 7.5-7.5v-26.717c0-4.143-3.357-7.5-7.5-7.5zM101.906 104.16c9.088 0 17.823 2.45 25.274 7.087l8.513 5.825a7.5 7.5 0 0 0 9.514-.861l24.828-24.596a7.5 7.5 0 0 0-1.037-11.514l-14.43-9.896a7.523 7.523 0 0 0-.922-.539l-13.979-6.902a7.33 7.33 0 0 0-.566-.252 102.259 102.259 0 0 0-37.708-7.165c-26.757 0-51.996 10.27-71.068 28.915C10.958 103.196.188 128.943.002 156.761c-.187 27.824 10.239 53.72 29.355 72.916 18.968 19.049 45.879 29.975 73.834 29.975 27.658 0 53.608-10.739 71.195-29.463 13.931-14.831 22.48-34.641 24.727-57.288.021-.215.034-.43.036-.645l.26-20.345a7.348 7.348 0 0 0-.09-1.257l-1.09-6.953a7.5 7.5 0 0 0-7.409-6.339h-86.672a7.5 7.5 0 0 0-7.5 7.5v29.982a7.5 7.5 0 0 0 7.5 7.5h44.186c-2.025 4.439-5.216 9.12-9.251 13.482-8.801 9.518-21.926 14.977-36.01 14.977-14.383 0-28.157-5.636-37.79-15.462-20.052-20.448-19.822-56.077.489-76.245 9.562-9.491 22.733-14.936 36.134-14.936z"/></symbol><symbol id="twitter" viewBox="0 0 612 612"><path d="M612 116.258a250.714 250.714 0 0 1-72.088 19.772c25.929-15.527 45.777-40.155 55.184-69.411-24.322 14.379-51.169 24.82-79.775 30.48-22.907-24.437-55.49-39.658-91.63-39.658-69.334 0-125.551 56.217-125.551 125.513 0 9.828 1.109 19.427 3.251 28.606-104.326-5.24-196.835-55.223-258.75-131.174-10.823 18.51-16.98 40.078-16.98 63.101 0 43.559 22.181 81.993 55.835 104.479a125.556 125.556 0 0 1-56.867-15.756v1.568c0 60.806 43.291 111.554 100.693 123.104-10.517 2.83-21.607 4.398-33.08 4.398-8.107 0-15.947-.803-23.634-2.333 15.985 49.907 62.336 86.199 117.253 87.194-42.947 33.654-97.099 53.655-155.916 53.655-10.134 0-20.116-.612-29.944-1.721 55.567 35.681 121.536 56.485 192.438 56.485 230.948 0 357.188-191.291 357.188-357.188l-.421-16.253c24.666-17.593 46.005-39.697 62.794-64.861z"/></symbol><symbol id="video" viewBox="0 0 508.492 508.492"><path d="M504.15 158.24c-2.829-33.848-23.011-76.532-64.487-78.058-115.815-7.787-253.02-9.916-370.933 0-36.582 4.1-61.658 48.659-64.391 82.507-5.784 71.097-5.784 111.557 0 182.654 2.765 33.848 27.206 78.662 64.455 83.365 119.311 7.787 255.849 8.899 370.933 0 36.105-6.261 61.69-49.517 64.455-83.365 5.752-71.129 5.752-116.006-.032-187.103zM190.647 344.199V161.926l158.912 91.152-158.912 91.121z"/></symbol><symbol id="vk" viewBox="0 0 304.36 304.36"><path d="M261.945 175.576c10.096 9.857 20.752 19.131 29.807 29.982 4 4.822 7.787 9.798 10.684 15.394 4.105 7.955.387 16.709-6.746 17.184l-44.34-.02c-11.436.949-20.559-3.655-28.23-11.474-6.139-6.253-11.824-12.908-17.727-19.372-2.42-2.642-4.953-5.128-7.979-7.093-6.053-3.929-11.307-2.726-14.766 3.587-3.523 6.421-4.322 13.531-4.668 20.687-.475 10.441-3.631 13.186-14.119 13.664-22.414 1.057-43.686-2.334-63.447-13.641-17.422-9.968-30.932-24.04-42.691-39.971-22.895-31.021-40.428-65.108-56.186-100.15C-2.01 76.458.584 72.22 9.295 72.07c14.465-.281 28.928-.261 43.41-.02 5.879.086 9.771 3.458 12.041 9.012 7.826 19.243 17.402 37.551 29.422 54.521 3.201 4.518 6.465 9.036 11.113 12.216 5.142 3.521 9.057 2.354 11.476-3.374 1.535-3.632 2.207-7.544 2.553-11.434 1.146-13.383 1.297-26.743-.713-40.079-1.234-8.323-5.922-13.711-14.227-15.286-4.238-.803-3.607-2.38-1.555-4.799 3.564-4.172 6.916-6.769 13.598-6.769h50.111c7.889 1.557 9.641 5.101 10.721 13.039l.043 55.663c-.086 3.073 1.535 12.192 7.07 14.226 4.43 1.448 7.35-2.096 10.008-4.905 11.998-12.734 20.561-27.783 28.211-43.366 3.395-6.852 6.314-13.968 9.143-21.078 2.096-5.276 5.385-7.872 11.328-7.757l48.229.043c1.43 0 2.877.021 4.262.258 8.127 1.385 10.354 4.881 7.844 12.817-3.955 12.451-11.65 22.827-19.174 33.251-8.043 11.129-16.645 21.877-24.621 33.072-7.328 10.223-6.746 15.376 2.357 24.255zm0 0" fill-rule="evenodd" clip-rule="evenodd"/></symbol></svg>